REM DATE 2021-10-05 10:59 PM
REM RECORDED_BY "rekordbox-dj"
TITLE "REC-2021-10-05 Electronica mix"
PERFORMER "DJ Hildeko"
FILE "01 REC-2021-10-05 Electronica mix.wav" WAVE
	TRACK 01 AUDIO
		TITLE "青墨"
		PERFORMER "相葉不透過"
		FILE "/Media/Hutoka Aiba/青墨 - Single/01 青墨.m4a" WAVE
		INDEX 01 00:00:00
	TRACK 02 AUDIO
		TITLE "slow sails"
		PERFORMER "birds humming the beat"
		FILE "/Media/birds humming the beat - slow sails.mp3" WAVE
		INDEX 01 00:03:23
	TRACK 03 AUDIO
		TITLE "Worlds"
		PERFORMER "Headstreams"
		FILE "/Media/Headstreams/Worlds - Single/01 Worlds.m4a" WAVE
		INDEX 01 00:07:27
	TRACK 04 AUDIO
		TITLE "Tachyon Heart"
		PERFORMER "Serph"
		FILE "/Media/Serph - Astral Pancake/Serph - Astral Pancake - 03 Tachyon Heart.mp3" WAVE
		INDEX 01 00:10:36
	TRACK 05 AUDIO
		TITLE "Worlds"
		PERFORMER "Headstreams"
		FILE "/Media/Headstreams/Worlds - Single/01 Worlds.m4a" WAVE
		INDEX 01 00:10:39
	TRACK 06 AUDIO
		TITLE "Earthquake"
		PERFORMER "KIRARA"
		FILE "/Media/KIRARA - Earthquake.mp3" WAVE
		INDEX 01 00:15:04
	TRACK 07 AUDIO
		TITLE "Juvenile"
		PERFORMER "guppykenkyusei"
		FILE "/Media/guppykenkyusei/Yofukashi/06 Juvenile.m4a" WAVE
		INDEX 01 00:18:38
	TRACK 08 AUDIO
		TITLE "Meteor Stream"
		PERFORMER "Kaoru Inoue"
		FILE "/Media/Kaoru Inoue - Meteor Stream.mp3" WAVE
		INDEX 01 00:21:49
	TRACK 09 AUDIO
		TITLE "Pulling Off the Stars (Kirara Remix)"
		PERFORMER "KIRARA"
		FILE "/Media/KIRARA - Pulling Off the Stars (Kirara Remix).mp3" WAVE
		INDEX 01 00:25:55
	TRACK 10 AUDIO
		TITLE "Emergence"
		PERFORMER "Cuushe"
		FILE "/Media/Cuushe/Waken/03 Emergence.m4a" WAVE
		INDEX 01 00:29:34
	TRACK 11 AUDIO
		TITLE "Gazing"
		PERFORMER "Firo"
		FILE "/Media/Firo/Gazing - Single/01 Gazing.m4a" WAVE
		INDEX 01 00:33:28
	TRACK 12 AUDIO
		TITLE "mellow"
		PERFORMER "サカナクション"
		FILE "/Media/sakanaction/sakanaction/12 mellow.m4a" WAVE
		INDEX 01 00:36:40
	TRACK 13 AUDIO
		TITLE "Fragile"
		PERFORMER "DJ OKAWARI × Celeina Ann"
		FILE "/Media/DJ OKAWARI × Celeina Ann/Nightfall/02 Fragile.m4a" WAVE
		INDEX 01 00:40:11
	TRACK 14 AUDIO
		TITLE "Sacred Play Secret Place"
		PERFORMER "matryoshka"
		FILE "/Media/matryoshka - Laideronnette - 03 Sacred Play Secret Place.mp3" WAVE
		INDEX 01 00:44:41
	TRACK 15 AUDIO
		TITLE "Hogehoge"
		PERFORMER "Fugafuga"
		FILE "/Media/test.mp3" WAVE
		INDEX 01 01:03:04
